<svg width="133" height="48" viewBox="0 0 133 48" fill="none" xmlns="http://www.w3.org/2000/svg">
<g clip-path="url(#clip0_3296_4143)">
<g clip-path="url(#clip1_3296_4143)">
<path d="M35.168 7.29378V0H0.72622V20.5741H0.732535L0 48H6.68123L7.06644 32.3515L14.8023 48H19.8353L27.4953 32.522L28.0447 48H34.4291L33.3745 17.9724H27.5774L17.0441 39.3296L7.66004 20.1447V7.29378H35.168Z" fill="#3DCFB6"/>
</g>
<path d="M43.2227 23.0238V0.93335H48.2905V18.5713H57.838L57.5303 23.0238H43.2227Z" fill="white"/>
<path d="M64.5747 23.3245C62.7466 23.3245 61.3711 22.7 60.4389 21.4602C59.5068 20.2204 59.0453 18.4828 59.0724 16.2657L59.1358 7.1797H63.8959L63.8326 15.8856C63.8326 16.8177 63.9955 17.5598 64.3303 18.0937C64.6652 18.6367 65.181 18.8991 65.8869 18.8991C66.4842 18.8991 67.0362 18.7091 67.5339 18.338C68.0317 17.967 68.4661 17.3426 68.8371 16.4738C69.2081 15.605 69.5068 14.4105 69.724 12.8991C69.9412 11.3878 70.0588 9.47834 70.086 7.17065H74.6923V23.0077H69.9321L70.1493 19.958C69.5249 21.0349 68.7376 21.8675 67.7873 22.4466C66.8371 23.0258 65.7692 23.3154 64.5837 23.3154L64.5747 23.3245Z" fill="white"/>
<path d="M78.3569 23.0226V0H83.1171V13.5022L88.9994 7.1855H94.6646L87.5062 14.8416C87.9859 15.1312 88.375 15.5113 88.6918 15.9909L89.9044 17.8914C90.5469 18.8868 91.4519 19.3846 92.6103 19.3846C93.2347 19.3846 93.823 19.2307 94.384 18.914L95.4067 22.4253C94.8275 22.7601 94.2302 22.9954 93.6148 23.1402C92.9994 23.285 92.3569 23.3484 91.6691 23.3303C90.3207 23.3122 89.2076 23.0588 88.3207 22.5791C87.4429 22.0995 86.6465 21.2941 85.9406 20.1538L84.728 18.2534C84.4384 17.8009 84.1669 17.4208 83.9225 17.1312C83.6782 16.8416 83.4067 16.6153 83.1171 16.4434V23.0045H78.3569V23.0226Z" fill="white"/>
<path d="M111.122 7.24788V23.0216H106.335L106.489 20.6596C105.348 22.4424 103.656 23.3383 101.421 23.3383C100.009 23.3383 98.8055 23.0216 97.81 22.37C96.8145 21.7275 96.0544 20.8316 95.5385 19.6913C95.0227 18.551 94.7603 17.2479 94.7603 15.7727C94.7603 14.008 95.1222 12.4605 95.8462 11.1393C96.5702 9.80896 97.5476 8.77729 98.7693 8.04426C99.991 7.31123 101.358 6.94019 102.878 6.94019C103.873 6.94019 104.751 7.13928 105.52 7.54652C106.29 7.95376 106.878 8.48769 107.294 9.14833L107.701 7.24788H111.122ZM103.348 11.0759C102.208 11.0759 101.312 11.5013 100.661 12.3519C100.009 13.2026 99.6833 14.2886 99.6833 15.6189C99.6833 16.7592 99.9367 17.637 100.443 18.2614C100.95 18.8859 101.638 19.1936 102.516 19.1936C103.575 19.1936 104.48 18.7592 105.24 17.8904C106 17.0216 106.371 15.8813 106.371 14.4696C106.371 13.4108 106.1 12.5872 105.566 11.9809C105.023 11.3836 104.29 11.0759 103.358 11.0759H103.348Z" fill="white"/>
<path d="M120.599 23.3305C118.3 23.3305 116.554 22.8961 115.377 22.0364C114.192 21.1767 113.504 20.0364 113.296 18.6337L117.251 17.6382C117.377 18.2446 117.721 18.7242 118.273 19.0862C118.834 19.4482 119.604 19.6292 120.572 19.6292C122.128 19.6292 122.907 19.2672 122.907 18.5432C122.907 18.1722 122.68 17.8826 122.237 17.6835C121.794 17.4844 121.07 17.2943 120.074 17.1043C118.21 16.7695 116.762 16.2446 115.73 15.5206C114.699 14.7966 114.192 13.6835 114.192 12.1903C114.192 11.1767 114.481 10.2717 115.061 9.4844C115.64 8.69708 116.436 8.07264 117.459 7.62015C118.472 7.16767 119.649 6.93237 120.97 6.93237C122.69 6.93237 124.119 7.33961 125.251 8.14504C126.382 8.95047 127.052 9.94594 127.26 11.1315L123.368 12.1903C123.223 11.7378 122.934 11.3577 122.509 11.0681C122.083 10.7785 121.504 10.6337 120.78 10.6337C120.092 10.6337 119.595 10.7514 119.269 10.9776C118.943 11.2039 118.789 11.4754 118.789 11.783C118.789 12.1541 119.006 12.4527 119.441 12.6699C119.875 12.8871 120.644 13.1134 121.739 13.3396C122.861 13.5477 123.848 13.8283 124.708 14.1993C125.567 14.5613 126.246 15.0591 126.726 15.6925C127.214 16.326 127.459 17.1767 127.459 18.2627C127.459 19.2762 127.16 20.1722 126.572 20.9414C125.984 21.7106 125.169 22.2989 124.128 22.7151C123.088 23.1314 121.911 23.3396 120.581 23.3396L120.599 23.3305Z" fill="white"/>
<path d="M43.168 47.6952L43.9462 25.6047H48.2087L55.9553 41.3151L63.6385 25.6047H67.9009L68.4892 47.6952H63.5752L63.2946 36.1839L57.6023 47.6952H53.901L48.272 36.3106L47.8648 47.6952H43.168Z" fill="white"/>
<path d="M75.3462 47.9842C73.5181 47.9842 72.1425 47.3598 71.2104 46.12C70.2783 44.8801 69.8168 43.1426 69.8439 40.9254L69.9073 31.8394H74.6674L74.6041 40.5453C74.6041 41.4774 74.767 42.2195 75.1018 42.7535C75.4367 43.2964 75.9525 43.5589 76.6584 43.5589C77.2557 43.5589 77.8077 43.3688 78.3054 42.9978C78.8032 42.6268 79.2376 42.0023 79.6086 41.1335C79.9796 40.2648 80.2783 39.0702 80.4955 37.5589C80.7127 36.0476 80.8303 34.1381 80.8575 31.8304H85.4638V47.6675H80.7036L80.9208 44.6177C80.2964 45.6946 79.509 46.5272 78.5588 47.1064C77.6086 47.6856 76.5407 47.9752 75.3552 47.9752L75.3462 47.9842ZM74.5045 30.0114C73.6086 30.0114 72.9389 29.7399 72.4864 29.206C72.0339 28.663 71.7987 28.0929 71.7987 27.4956C71.7987 26.853 72.0249 26.2738 72.4864 25.758C72.9389 25.2422 73.6177 24.9797 74.5045 24.9797C75.3914 24.9797 76.0158 25.2422 76.4774 25.758C76.948 26.2738 77.1742 26.853 77.1742 27.4956C77.1742 28.1019 76.9389 28.663 76.4774 29.206C76.0068 29.749 75.3552 30.0114 74.5045 30.0114ZM81.1018 30.0114C80.2059 30.0114 79.5271 29.7399 79.0656 29.206C78.595 28.663 78.3688 28.0929 78.3688 27.4956C78.3688 26.853 78.6041 26.2738 79.0656 25.758C79.5362 25.2422 80.2149 24.9797 81.1018 24.9797C81.9887 24.9797 82.6041 25.2422 83.0656 25.758C83.5181 26.2738 83.7534 26.853 83.7534 27.4956C83.7534 28.1019 83.5271 28.663 83.0656 29.206C82.6131 29.749 81.9525 30.0114 81.1018 30.0114Z" fill="white"/>
<path d="M91.7703 47.9795C90.1685 47.9795 88.9468 47.536 88.0871 46.6582C87.2274 45.7804 86.793 44.4953 86.793 42.812V24.6401H91.5531V42.4682C91.5531 43.4184 91.9966 43.898 92.8925 43.898C93.3721 43.898 93.7703 43.7804 94.1052 43.5541L95.2545 46.9478C94.9016 47.2374 94.4129 47.4817 93.7884 47.6808C93.164 47.8799 92.4943 47.9795 91.7703 47.9795Z" fill="white"/>
<path d="M100.128 47.9795C98.5264 47.9795 97.3047 47.536 96.445 46.6582C95.5853 45.7804 95.1509 44.4953 95.1509 42.812V24.6401H99.9111V42.4682C99.9111 43.4184 100.354 43.898 101.25 43.898C101.73 43.898 102.128 43.7804 102.463 43.5541L103.612 46.9478C103.259 47.2374 102.771 47.4817 102.146 47.6808C101.522 47.8799 100.852 47.9795 100.128 47.9795Z" fill="white"/>
<path d="M112.413 48.0017C110.648 48.0017 109.128 47.6759 107.843 47.0243C106.558 46.3727 105.562 45.4496 104.856 44.2551C104.15 43.0605 103.797 41.6487 103.797 40.0107C103.797 38.3727 104.159 36.8886 104.874 35.6216C105.589 34.3546 106.558 33.3682 107.77 32.6623C108.983 31.9565 110.358 31.6035 111.888 31.6035C113.634 31.6035 115.046 32.0017 116.15 32.789C117.245 33.5764 118.015 34.6895 118.44 36.1374C118.865 37.5764 118.956 39.2506 118.702 41.1601H108.657C108.784 41.9474 109.2 42.608 109.906 43.1329C110.612 43.6578 111.571 43.9293 112.802 43.9293C113.363 43.9293 113.951 43.8116 114.576 43.5673C115.2 43.332 115.725 42.97 116.159 42.4904L118.802 45.2867C118.114 46.1193 117.272 46.7709 116.268 47.2596C115.263 47.7483 113.978 47.9926 112.422 47.9926L112.413 48.0017ZM111.978 35.0605C111.146 35.0605 110.449 35.3139 109.879 35.8116C109.309 36.3094 108.929 37.0062 108.748 37.8931H114.693C114.711 36.9157 114.485 36.2008 113.996 35.7483C113.508 35.2958 112.838 35.0605 111.987 35.0605H111.978Z" fill="white"/>
<path d="M131.315 36.462C130.899 36.2991 130.338 36.2177 129.632 36.2177C128.555 36.2177 127.695 36.5977 127.053 37.3489C126.41 38.1091 125.94 39.3308 125.65 41.0231C125.361 42.7154 125.216 44.9416 125.216 47.6927H120.483V37.4303L120.419 31.8647H125.18L124.962 35.8195C125.523 34.3082 126.275 33.2312 127.216 32.5797C128.157 31.9371 129.171 31.6113 130.247 31.6113C130.6 31.6113 130.926 31.6294 131.225 31.6747C131.523 31.7199 131.831 31.7923 132.139 31.8919L131.297 36.462H131.315Z" fill="white"/>
</g>
<defs>
<clipPath id="clip0_3296_4143">
<rect width="132.139" height="48.0018" fill="white"/>
</clipPath>
<clipPath id="clip1_3296_4143">
<rect width="35.168" height="48" fill="white"/>
</clipPath>
</defs>
</svg>
