<?xml version="1.0" encoding="UTF-8"?>
<svg xmlns="http://www.w3.org/2000/svg" xmlns:xlink="http://www.w3.org/1999/xlink" width="48px" height="24px" viewBox="0 0 48 24" version="1.1">
<g id="surface1">
<path style=" stroke:none;fill-rule:nonzero;fill:#3DCFB6;fill-opacity:1;" d="M 6.457031 2.0625 L 6.894531 2.882812 C 6.988281 3.03125 7.101562 3.167969 7.222656 3.292969 C 7.589844 3.65625 7.9375 4.039062 8.25 4.449219 C 8.988281 5.421875 9.488281 6.496094 9.84375 7.664062 C 10.054688 8.378906 10.171875 9.109375 10.179688 9.847656 C 10.21875 12.058594 9.460938 13.953125 7.925781 15.53125 C 7.679688 15.78125 7.410156 16.011719 7.125 16.21875 C 6.972656 16.21875 6.902344 16.097656 6.839844 15.992188 C 6.722656 15.792969 6.652344 15.574219 6.617188 15.351562 C 6.5625 15.085938 6.527344 14.820312 6.546875 14.542969 L 6.546875 14.417969 C 6.539062 14.390625 6.40625 2.125 6.457031 2.0625 Z M 6.457031 2.0625 "/>
<path style=" stroke:none;fill-rule:nonzero;fill:#3DCFB6;fill-opacity:1;" d="M 6.457031 2.035156 C 6.441406 2 6.421875 2.027344 6.40625 2.042969 C 6.414062 2.222656 6.351562 2.382812 6.253906 2.535156 C 6.144531 2.6875 6.003906 2.800781 5.859375 2.925781 C 5.070312 3.613281 4.445312 4.441406 3.945312 5.367188 C 3.285156 6.613281 2.941406 7.949219 2.84375 9.359375 C 2.796875 9.867188 3.003906 11.65625 3.164062 12.171875 C 3.597656 13.542969 4.382812 14.691406 5.402344 15.691406 C 5.652344 15.929688 5.917969 16.152344 6.195312 16.367188 C 6.277344 16.367188 6.285156 16.296875 6.300781 16.242188 C 6.335938 16.128906 6.363281 16.011719 6.382812 15.894531 C 6.460938 15.449219 6.507812 15.003906 6.558594 14.558594 L 6.460938 2.035156 Z M 6.457031 2.035156 "/>
<path style=" stroke:none;fill-rule:nonzero;fill:#3DCFB6;fill-opacity:1;" d="M 6.894531 16.761719 C 6.914062 16.554688 7.015625 16.386719 7.117188 16.21875 C 7.011719 16.171875 6.929688 16.082031 6.871094 15.984375 C 6.816406 15.894531 6.769531 15.785156 6.734375 15.691406 C 6.609375 15.316406 6.582031 14.925781 6.546875 14.542969 L 6.546875 14.308594 C 6.503906 14.34375 6.496094 14.648438 6.496094 14.691406 C 6.46875 15.101562 6.414062 15.503906 6.335938 15.894531 C 6.308594 16.054688 6.289062 16.214844 6.191406 16.359375 C 6.191406 16.375 6.191406 16.394531 6.203125 16.421875 C 6.359375 16.894531 6.40625 17.375 6.433594 17.863281 L 6.433594 18.042969 C 6.433594 18.253906 6.425781 18.210938 6.601562 18.28125 C 6.671875 18.308594 6.753906 18.316406 6.824219 18.371094 C 6.878906 18.371094 6.886719 18.328125 6.886719 18.292969 L 6.859375 17.996094 L 6.859375 17.175781 C 6.851562 17.035156 6.878906 16.890625 6.898438 16.757812 Z M 6.894531 16.761719 "/>
<path style=" stroke:none;fill-rule:nonzero;fill:#3DCFB6;fill-opacity:1;" d="M 13.660156 13.035156 L 13.660156 13.882812 C 13.660156 13.917969 13.660156 13.949219 13.664062 13.984375 C 13.675781 14.082031 13.738281 14.144531 13.828125 14.171875 C 13.914062 14.195312 14 14.210938 14.085938 14.222656 C 14.136719 14.230469 14.152344 14.25 14.160156 14.304688 C 14.164062 14.496094 14.148438 14.519531 13.964844 14.507812 C 13.535156 14.484375 13.105469 14.476562 12.675781 14.507812 L 12.632812 14.507812 C 12.5 14.511719 12.488281 14.5 12.488281 14.367188 C 12.488281 14.34375 12.496094 14.316406 12.496094 14.292969 C 12.496094 14.253906 12.523438 14.234375 12.5625 14.234375 C 12.652344 14.222656 12.734375 14.199219 12.820312 14.183594 C 12.9375 14.15625 13.003906 14.082031 13.015625 13.964844 C 13.03125 13.835938 13.03125 13.703125 13.03125 13.574219 L 13.035156 12.078125 C 13.039062 11.988281 12.992188 11.90625 12.914062 11.867188 C 12.8125 11.808594 12.707031 11.765625 12.59375 11.730469 C 12.5625 11.71875 12.527344 11.714844 12.5 11.699219 C 12.417969 11.660156 12.417969 11.585938 12.496094 11.542969 C 12.523438 11.523438 12.554688 11.515625 12.589844 11.507812 C 12.929688 11.457031 13.261719 11.375 13.582031 11.257812 C 13.648438 11.234375 13.667969 11.242188 13.671875 11.308594 C 13.679688 11.347656 13.671875 11.398438 13.667969 11.433594 C 13.65625 11.507812 13.65625 11.582031 13.65625 11.648438 C 13.65625 11.675781 13.660156 11.703125 13.6875 11.71875 C 13.71875 11.738281 13.746094 11.71875 13.769531 11.703125 C 13.886719 11.613281 14.003906 11.53125 14.132812 11.460938 C 14.316406 11.359375 14.511719 11.269531 14.726562 11.242188 C 14.984375 11.207031 15.207031 11.273438 15.402344 11.441406 C 15.480469 11.515625 15.554688 11.597656 15.613281 11.6875 C 15.667969 11.769531 15.675781 11.773438 15.746094 11.714844 C 15.960938 11.558594 16.183594 11.421875 16.421875 11.320312 C 16.675781 11.214844 16.929688 11.195312 17.1875 11.285156 C 17.449219 11.378906 17.628906 11.566406 17.734375 11.816406 C 17.824219 12.015625 17.863281 12.222656 17.863281 12.441406 L 17.863281 13.9375 C 17.863281 14.039062 17.902344 14.101562 18.003906 14.148438 C 18.109375 14.191406 18.226562 14.210938 18.335938 14.234375 C 18.410156 14.25 18.410156 14.25 18.410156 14.324219 C 18.398438 14.507812 18.382812 14.519531 18.203125 14.507812 C 17.757812 14.480469 17.308594 14.480469 16.859375 14.507812 C 16.769531 14.511719 16.769531 14.511719 16.765625 14.421875 L 16.765625 14.394531 C 16.757812 14.242188 16.757812 14.242188 16.902344 14.210938 L 17.046875 14.171875 C 17.148438 14.148438 17.222656 14.058594 17.222656 13.953125 L 17.238281 13.535156 L 17.226562 12.441406 C 17.222656 12.34375 17.203125 12.246094 17.167969 12.15625 C 17.027344 11.816406 16.71875 11.695312 16.421875 11.726562 C 16.199219 11.75 16.003906 11.839844 15.820312 11.96875 C 15.78125 11.996094 15.753906 12.027344 15.757812 12.085938 C 15.808594 12.441406 15.777344 12.800781 15.78125 13.15625 L 15.78125 13.933594 C 15.78125 14.074219 15.835938 14.140625 15.972656 14.171875 L 16.230469 14.230469 C 16.269531 14.234375 16.289062 14.25 16.289062 14.296875 L 16.289062 14.335938 C 16.285156 14.492188 16.273438 14.5 16.117188 14.5 C 15.671875 14.476562 15.222656 14.480469 14.78125 14.5 C 14.632812 14.503906 14.621094 14.488281 14.625 14.335938 C 14.632812 14.246094 14.644531 14.242188 14.726562 14.222656 L 14.910156 14.191406 C 15.074219 14.15625 15.132812 14.09375 15.144531 13.921875 L 15.160156 13.546875 L 15.152344 12.425781 C 15.140625 12.285156 15.109375 12.152344 15.035156 12.023438 C 14.921875 11.816406 14.746094 11.710938 14.507812 11.699219 C 14.269531 11.683594 14.054688 11.773438 13.855469 11.882812 C 13.714844 11.964844 13.652344 12.0625 13.664062 12.222656 L 13.664062 13.039062 Z M 24.175781 13.070312 L 24.175781 13.855469 C 24.175781 13.910156 24.179688 13.96875 24.1875 14.023438 C 24.191406 14.097656 24.246094 14.164062 24.320312 14.179688 C 24.417969 14.207031 24.515625 14.222656 24.617188 14.230469 C 24.671875 14.234375 24.683594 14.257812 24.691406 14.300781 L 24.691406 14.339844 C 24.683594 14.535156 24.664062 14.558594 24.472656 14.546875 C 24.046875 14.519531 23.625 14.527344 23.199219 14.546875 L 23.035156 14.554688 C 23.003906 14.554688 22.996094 14.539062 22.984375 14.515625 C 22.96875 14.4375 22.96875 14.359375 22.984375 14.28125 C 22.992188 14.246094 23.015625 14.238281 23.046875 14.230469 C 23.128906 14.21875 23.199219 14.203125 23.277344 14.1875 C 23.414062 14.15625 23.464844 14.097656 23.472656 13.953125 L 23.488281 13.484375 L 23.488281 12.113281 C 23.488281 12.011719 23.449219 11.949219 23.359375 11.90625 C 23.257812 11.851562 23.152344 11.8125 23.039062 11.773438 C 23.007812 11.761719 22.972656 11.75 22.945312 11.734375 C 22.875 11.683594 22.863281 11.609375 22.933594 11.554688 C 22.964844 11.527344 23.003906 11.511719 23.046875 11.507812 C 23.402344 11.453125 23.75 11.375 24.085938 11.242188 C 24.125 11.226562 24.140625 11.234375 24.15625 11.269531 C 24.175781 11.300781 24.179688 11.34375 24.171875 11.378906 L 24.15625 11.644531 C 24.15625 11.675781 24.140625 11.726562 24.167969 11.738281 C 24.203125 11.761719 24.222656 11.710938 24.253906 11.695312 C 24.417969 11.558594 24.597656 11.441406 24.792969 11.351562 C 24.96875 11.269531 25.144531 11.21875 25.347656 11.226562 C 25.71875 11.25 25.988281 11.441406 26.160156 11.769531 C 26.25 11.941406 26.289062 12.132812 26.304688 12.328125 L 26.324219 12.738281 L 26.328125 13.96875 C 26.335938 14.066406 26.367188 14.125 26.460938 14.160156 C 26.5625 14.191406 26.660156 14.21875 26.765625 14.234375 C 26.855469 14.242188 26.859375 14.261719 26.863281 14.34375 L 26.863281 14.371094 C 26.851562 14.5625 26.839844 14.566406 26.652344 14.554688 C 26.234375 14.535156 25.816406 14.535156 25.402344 14.554688 C 25.34375 14.5625 25.289062 14.554688 25.238281 14.5625 C 25.203125 14.5625 25.183594 14.554688 25.175781 14.523438 C 25.164062 14.449219 25.15625 14.378906 25.171875 14.300781 C 25.175781 14.265625 25.195312 14.25 25.234375 14.242188 L 25.488281 14.203125 C 25.578125 14.179688 25.628906 14.121094 25.640625 14.039062 L 25.652344 13.882812 L 25.644531 12.714844 C 25.644531 12.582031 25.640625 12.449219 25.613281 12.3125 C 25.546875 12.027344 25.328125 11.824219 25.03125 11.796875 C 24.777344 11.765625 24.542969 11.835938 24.328125 11.972656 C 24.222656 12.039062 24.179688 12.136719 24.179688 12.253906 L 24.179688 13.097656 C 24.179688 13.078125 24.179688 13.078125 24.183594 13.078125 Z M 24.175781 13.070312 "/>
<path style=" stroke:none;fill-rule:nonzero;fill:#3DCFB6;fill-opacity:1;" d="M 40.523438 11.488281 C 40.464844 11.082031 40.3125 10.71875 40.050781 10.398438 C 39.820312 10.117188 39.527344 9.898438 39.191406 9.765625 C 38.839844 9.617188 38.464844 9.574219 38.085938 9.5625 C 37.929688 9.558594 35.796875 9.589844 35.640625 9.5625 C 35.601562 9.558594 35.574219 9.570312 35.550781 9.601562 C 35.523438 9.644531 35.496094 9.6875 35.476562 9.730469 C 35.410156 9.882812 35.410156 9.871094 35.574219 9.890625 C 35.707031 9.914062 35.835938 9.925781 35.964844 9.964844 C 36.082031 10.003906 36.164062 10.070312 36.191406 10.199219 C 36.203125 10.261719 36.214844 12.226562 36.214844 13.140625 L 36.191406 13.792969 C 36.1875 13.84375 36.179688 13.894531 36.164062 13.9375 C 36.140625 14.007812 36.101562 14.0625 36.035156 14.089844 C 35.960938 14.125 35.882812 14.144531 35.800781 14.152344 C 35.652344 14.167969 35.628906 14.175781 35.578125 14.339844 L 35.5625 14.402344 C 35.550781 14.476562 35.554688 14.488281 35.628906 14.488281 L 37.296875 14.503906 L 37.953125 14.492188 L 38.402344 14.4375 C 38.917969 14.339844 39.375 14.128906 39.765625 13.789062 C 39.988281 13.589844 40.171875 13.351562 40.300781 13.085938 C 40.457031 12.773438 40.523438 12.433594 40.542969 12.085938 C 40.570312 11.890625 40.558594 11.691406 40.523438 11.488281 Z M 39.714844 12.28125 C 39.691406 12.636719 39.621094 12.984375 39.4375 13.296875 C 39.203125 13.703125 38.867188 13.988281 38.402344 14.089844 C 38.203125 14.128906 38.003906 14.152344 37.792969 14.121094 C 37.640625 14.105469 37.496094 14.089844 37.355469 14.039062 C 37.105469 13.949219 37.015625 13.792969 37.011719 13.546875 L 37.003906 10.183594 C 37.003906 9.980469 37.09375 9.9375 37.238281 9.933594 C 37.457031 9.914062 37.679688 9.921875 37.898438 9.941406 C 38.128906 9.964844 38.355469 10.019531 38.574219 10.105469 C 38.734375 10.171875 38.882812 10.265625 39.015625 10.378906 C 39.316406 10.636719 39.515625 10.960938 39.628906 11.339844 C 39.71875 11.648438 39.734375 11.960938 39.71875 12.273438 Z M 45.164062 12.828125 C 45.164062 12.792969 45.164062 12.765625 45.160156 12.734375 C 45.109375 12.425781 44.945312 12.191406 44.695312 12.011719 C 44.535156 11.894531 44.347656 11.816406 44.160156 11.761719 C 44.125 11.75 44.097656 11.738281 44.066406 11.734375 C 44.070312 11.707031 44.085938 11.699219 44.105469 11.695312 C 44.214844 11.640625 44.320312 11.578125 44.417969 11.496094 C 44.589844 11.347656 44.703125 11.171875 44.761719 10.953125 C 44.796875 10.835938 44.796875 10.71875 44.785156 10.59375 C 44.765625 10.304688 44.617188 10.035156 44.378906 9.871094 C 44.121094 9.679688 43.820312 9.601562 43.507812 9.597656 C 42.902344 9.585938 42.296875 9.597656 41.691406 9.597656 C 41.519531 9.597656 41.347656 9.605469 41.167969 9.578125 C 41.132812 9.574219 41.085938 9.5625 41.0625 9.601562 C 41.019531 9.675781 40.972656 9.746094 40.957031 9.832031 C 40.949219 9.871094 40.960938 9.890625 41.007812 9.898438 L 41.390625 9.953125 C 41.542969 9.976562 41.648438 10.058594 41.660156 10.195312 C 41.671875 10.285156 41.675781 10.378906 41.675781 10.472656 L 41.664062 11.515625 L 41.660156 13.582031 C 41.660156 13.703125 41.640625 13.820312 41.621094 13.945312 C 41.609375 14.023438 41.550781 14.089844 41.472656 14.113281 C 41.363281 14.144531 41.257812 14.179688 41.140625 14.179688 C 41.074219 14.171875 41.015625 14.210938 40.996094 14.273438 C 40.972656 14.324219 40.953125 14.378906 40.945312 14.429688 C 40.933594 14.496094 40.949219 14.519531 41.015625 14.511719 C 41.066406 14.503906 42.910156 14.550781 43.253906 14.515625 C 43.460938 14.496094 43.664062 14.46875 43.871094 14.40625 C 44.21875 14.292969 44.542969 14.132812 44.800781 13.859375 C 45.015625 13.636719 45.136719 13.367188 45.148438 13.054688 C 45.164062 12.980469 45.164062 12.910156 45.164062 12.832031 Z M 42.457031 10.539062 L 42.472656 10.09375 C 42.472656 10.011719 42.507812 9.972656 42.589844 9.953125 C 42.726562 9.925781 42.859375 9.9375 42.992188 9.945312 C 43.125 9.953125 43.253906 9.972656 43.390625 10.011719 C 43.632812 10.082031 43.824219 10.222656 43.9375 10.457031 C 43.988281 10.5625 44.011719 10.679688 44.015625 10.796875 C 44.019531 10.953125 44.007812 11.105469 43.945312 11.253906 C 43.851562 11.460938 43.703125 11.597656 43.484375 11.636719 C 43.265625 11.675781 42.648438 11.65625 42.550781 11.65625 C 42.46875 11.65625 42.460938 11.648438 42.460938 11.5625 L 42.460938 11.039062 C 42.449219 10.875 42.445312 10.710938 42.457031 10.546875 Z M 44.269531 13.542969 C 44.175781 13.796875 44.003906 13.96875 43.757812 14.0625 C 43.625 14.113281 43.488281 14.144531 43.347656 14.136719 C 43.175781 14.128906 43.003906 14.136719 42.832031 14.101562 C 42.59375 14.050781 42.488281 13.828125 42.472656 13.667969 C 42.445312 13.382812 42.460938 13.089844 42.457031 12.878906 L 42.457031 12.140625 C 42.457031 12.050781 42.46875 12.023438 42.5625 12.023438 L 43.085938 12.03125 L 43.445312 12.070312 C 43.695312 12.128906 43.925781 12.222656 44.105469 12.417969 C 44.25 12.574219 44.328125 12.765625 44.34375 12.96875 C 44.359375 13.164062 44.347656 13.355469 44.277344 13.539062 Z M 44.269531 13.542969 "/>
<path style=" stroke:none;fill-rule:nonzero;fill:#3DCFB6;fill-opacity:1;" d="M 30.089844 11.863281 L 30.234375 11.882812 C 30.390625 11.890625 30.574219 11.835938 30.628906 11.617188 C 30.660156 11.511719 30.660156 11.402344 30.628906 11.296875 C 30.597656 11.296875 30.578125 11.324219 30.5625 11.335938 C 30.480469 11.40625 30.382812 11.445312 30.285156 11.453125 C 30.082031 11.476562 29.882812 11.464844 29.6875 11.394531 L 29.414062 11.296875 C 29.222656 11.234375 29.019531 11.210938 28.820312 11.222656 C 28.535156 11.242188 28.269531 11.339844 28.015625 11.472656 C 27.75 11.617188 27.558594 11.835938 27.46875 12.132812 C 27.417969 12.304688 27.414062 12.480469 27.4375 12.660156 C 27.492188 13.070312 27.703125 13.355469 28.082031 13.503906 C 28.105469 13.511719 28.121094 13.519531 28.144531 13.527344 C 28.195312 13.554688 28.199219 13.582031 28.15625 13.621094 L 28.015625 13.714844 L 27.679688 13.921875 C 27.597656 13.972656 27.585938 14.011719 27.613281 14.101562 C 27.648438 14.207031 27.707031 14.296875 27.792969 14.371094 C 27.867188 14.433594 27.957031 14.488281 28.050781 14.527344 C 28.109375 14.554688 28.109375 14.566406 28.054688 14.617188 L 27.734375 14.84375 C 27.628906 14.925781 27.523438 15.007812 27.433594 15.113281 C 27.308594 15.246094 27.257812 15.433594 27.300781 15.613281 C 27.34375 15.808594 27.445312 15.984375 27.589844 16.117188 C 27.734375 16.25 27.914062 16.347656 28.105469 16.394531 C 28.417969 16.484375 28.742188 16.492188 29.058594 16.429688 C 29.515625 16.347656 29.917969 16.144531 30.230469 15.800781 C 30.449219 15.570312 30.578125 15.300781 30.589844 14.980469 C 30.613281 14.597656 30.359375 14.253906 29.984375 14.167969 L 29.683594 14.109375 L 28.761719 14.03125 C 28.664062 14.023438 28.5625 14.007812 28.476562 13.957031 C 28.371094 13.890625 28.34375 13.761719 28.410156 13.679688 C 28.460938 13.617188 28.523438 13.578125 28.601562 13.570312 L 28.78125 13.554688 C 29.132812 13.519531 29.464844 13.367188 29.722656 13.125 C 29.859375 12.996094 29.960938 12.832031 30.007812 12.652344 C 30.074219 12.410156 30.074219 12.160156 30.019531 11.914062 C 30.003906 11.855469 30.007812 11.847656 30.085938 11.859375 Z M 28.71875 14.644531 C 28.753906 14.648438 28.785156 14.644531 28.820312 14.644531 C 29.054688 14.652344 29.296875 14.671875 29.523438 14.734375 C 29.597656 14.753906 29.671875 14.78125 29.742188 14.816406 C 29.964844 14.9375 30.046875 15.152344 30.019531 15.378906 C 29.988281 15.632812 29.847656 15.808594 29.628906 15.925781 C 29.484375 16.007812 29.324219 16.042969 29.15625 16.0625 C 29.09375 16.066406 29.039062 16.0625 28.976562 16.0625 C 28.78125 16.066406 28.589844 16.042969 28.40625 15.964844 C 28.277344 15.917969 28.171875 15.84375 28.078125 15.742188 C 27.882812 15.546875 27.792969 15.191406 28.082031 14.898438 C 28.261719 14.738281 28.464844 14.621094 28.71875 14.644531 Z M 29.355469 12.902344 C 29.238281 13.195312 28.980469 13.285156 28.726562 13.246094 C 28.492188 13.214844 28.316406 13.085938 28.207031 12.871094 C 28.0625 12.589844 28.023438 12.292969 28.105469 11.984375 C 28.167969 11.757812 28.308594 11.582031 28.554688 11.542969 C 28.867188 11.488281 29.164062 11.601562 29.324219 11.914062 C 29.40625 12.0625 29.441406 12.246094 29.441406 12.507812 C 29.433594 12.617188 29.414062 12.761719 29.355469 12.902344 Z M 22.324219 12.519531 C 22.273438 12.21875 22.160156 11.945312 21.957031 11.71875 C 21.648438 11.375 21.257812 11.226562 20.816406 11.226562 C 20.429688 11.21875 20.070312 11.332031 19.746094 11.53125 C 19.425781 11.722656 19.191406 12.03125 19.089844 12.386719 C 18.996094 12.710938 19 13.039062 19.074219 13.371094 C 19.269531 14.25 19.953125 14.628906 20.765625 14.574219 C 21.007812 14.558594 21.234375 14.480469 21.453125 14.375 C 21.777344 14.222656 22.011719 13.984375 22.171875 13.664062 C 22.300781 13.402344 22.355469 13.125 22.351562 12.804688 Z M 21.53125 13.761719 C 21.449219 14.015625 21.222656 14.199219 20.957031 14.230469 C 20.710938 14.261719 20.480469 14.203125 20.273438 14.054688 C 20.125 13.945312 20.003906 13.804688 19.921875 13.636719 C 19.695312 13.167969 19.65625 12.675781 19.773438 12.175781 C 19.808594 12.019531 19.890625 11.878906 20.007812 11.765625 C 20.214844 11.578125 20.453125 11.53125 20.722656 11.589844 C 20.980469 11.644531 21.171875 11.785156 21.335938 11.996094 C 21.496094 12.210938 21.570312 12.453125 21.613281 12.710938 C 21.636719 12.839844 21.636719 12.972656 21.640625 13.058594 C 21.640625 13.324219 21.617188 13.546875 21.535156 13.761719 Z M 34.519531 12.566406 C 34.480469 12.242188 34.359375 11.945312 34.128906 11.699219 C 33.828125 11.371094 33.4375 11.230469 33 11.226562 C 32.628906 11.21875 32.28125 11.328125 31.964844 11.511719 C 31.605469 11.722656 31.359375 12.023438 31.265625 12.433594 C 31.152344 12.875 31.199219 13.347656 31.398438 13.761719 C 31.582031 14.152344 31.894531 14.402344 32.308594 14.515625 C 32.765625 14.636719 33.203125 14.582031 33.625 14.375 C 33.996094 14.195312 34.257812 13.917969 34.410156 13.535156 C 34.5 13.3125 34.53125 13.074219 34.535156 12.792969 C 34.542969 12.742188 34.53125 12.65625 34.519531 12.566406 Z M 33.75 13.6875 C 33.660156 13.988281 33.46875 14.183594 33.152344 14.230469 C 32.917969 14.261719 32.695312 14.207031 32.492188 14.074219 C 32.320312 13.957031 32.199219 13.800781 32.109375 13.617188 C 32.007812 13.421875 31.953125 13.214844 31.929688 13 C 31.894531 12.738281 31.894531 12.484375 31.957031 12.21875 C 31.96875 12.167969 31.984375 12.117188 32.007812 12.070312 C 32.164062 11.679688 32.511719 11.5 32.917969 11.589844 C 33.191406 11.652344 33.398438 11.800781 33.554688 12.03125 C 33.707031 12.253906 33.777344 12.5 33.8125 12.765625 C 33.828125 12.871094 33.835938 12.984375 33.828125 13.078125 C 33.828125 13.296875 33.8125 13.496094 33.746094 13.691406 Z M 33.75 13.6875 "/>
</g>
</svg>
