<?xml version="1.0" encoding="UTF-8"?>
<svg xmlns="http://www.w3.org/2000/svg" xmlns:xlink="http://www.w3.org/1999/xlink" width="40px" height="24px" viewBox="0 0 39 24" version="1.1">
<g id="surface1">
<path style=" stroke:none;fill-rule:nonzero;fill:#3DCFB6;fill-opacity:1;" d="M 9.203125 6.257812 L 16.558594 6.257812 L 16.558594 6.851562 L 9.875 6.851562 L 9.875 11.339844 L 16.160156 11.339844 L 16.160156 11.9375 L 9.875 11.9375 L 9.875 16.863281 L 16.632812 16.863281 L 16.632812 17.457031 L 9.203125 17.457031 Z M 17.21875 6.257812 L 18 6.257812 L 21.460938 11.183594 L 25 6.257812 L 29.816406 0 L 21.90625 11.699219 L 25.984375 17.457031 L 25.171875 17.457031 L 21.460938 12.21875 L 17.738281 17.457031 L 16.941406 17.457031 L 21.046875 11.699219 Z M 26.273438 6.851562 L 26.273438 6.257812 L 34.65625 6.257812 L 34.65625 6.851562 L 30.792969 6.851562 L 30.792969 17.457031 L 30.121094 17.457031 L 30.121094 6.851562 Z M 0 6.257812 L 0.84375 6.257812 L 12.464844 23.992188 L 7.664062 17.457031 L 0.703125 7.105469 L 0.675781 17.457031 L 0 17.457031 Z M 34.589844 16.683594 C 34.449219 16.683594 34.347656 16.574219 34.347656 16.433594 C 34.347656 16.292969 34.449219 16.183594 34.589844 16.183594 C 34.726562 16.183594 34.828125 16.292969 34.828125 16.433594 C 34.828125 16.574219 34.726562 16.683594 34.589844 16.683594 Z M 35.25 16.027344 L 35.613281 16.027344 C 35.617188 16.226562 35.757812 16.359375 35.96875 16.359375 C 36.203125 16.359375 36.335938 16.214844 36.335938 15.945312 L 36.335938 14.238281 L 36.703125 14.238281 L 36.703125 15.949219 C 36.703125 16.433594 36.429688 16.710938 35.972656 16.710938 C 35.542969 16.710938 35.25 16.441406 35.25 16.027344 Z M 37.183594 16.003906 L 37.546875 16.003906 C 37.578125 16.234375 37.800781 16.378906 38.117188 16.378906 C 38.410156 16.378906 38.628906 16.222656 38.628906 16.007812 C 38.628906 15.824219 38.488281 15.714844 38.175781 15.640625 L 37.871094 15.5625 C 37.445312 15.460938 37.25 15.25 37.25 14.894531 C 37.25 14.464844 37.59375 14.179688 38.109375 14.179688 C 38.589844 14.179688 38.941406 14.464844 38.960938 14.871094 L 38.605469 14.871094 C 38.570312 14.648438 38.378906 14.511719 38.105469 14.511719 C 37.8125 14.511719 37.621094 14.652344 37.621094 14.871094 C 37.621094 15.042969 37.746094 15.140625 38.054688 15.214844 L 38.316406 15.28125 C 38.800781 15.394531 39 15.597656 39 15.960938 C 39 16.421875 38.648438 16.710938 38.089844 16.710938 C 37.5625 16.710938 37.210938 16.4375 37.183594 16.003906 Z M 37.183594 16.003906 "/>
</g>
</svg>
